<mxfile host="app.diagrams.net" modified="2023-08-25T16:26:36.270Z" agent="Mozilla/5.0 (X11; Linux x86_64; rv:109.0) Gecko/20100101 Firefox/111.0" etag="ozMRngfge29qLhtXo-ke" version="21.6.9" type="github">
  <diagram id="R2lEEEUBdFMjLlhIrx00" name="Page-1">
    <mxGraphModel dx="1434" dy="718" grid="1" gridSize="10" guides="1" tooltips="1" connect="1" arrows="1" fold="1" page="1" pageScale="1" pageWidth="850" pageHeight="1100" math="0" shadow="0" extFonts="Permanent Marker^https://fonts.googleapis.com/css?family=Permanent+Marker">
      <root>
        <mxCell id="0" />
        <mxCell id="1" parent="0" />
        <mxCell id="tSrCRFHeZKI9ePzAQU04-1" value="cliente" style="swimlane;childLayout=stackLayout;horizontal=1;startSize=50;horizontalStack=0;rounded=1;fontSize=14;fontStyle=0;strokeWidth=2;resizeParent=0;resizeLast=1;shadow=0;dashed=0;align=center;arcSize=4;whiteSpace=wrap;html=1;" vertex="1" parent="1">
          <mxGeometry x="60" y="310" width="160" height="120" as="geometry" />
        </mxCell>
        <mxCell id="tSrCRFHeZKI9ePzAQU04-3" value="" style="endArrow=none;html=1;rounded=0;" edge="1" parent="1">
          <mxGeometry relative="1" as="geometry">
            <mxPoint x="220" y="380" as="sourcePoint" />
            <mxPoint x="500" y="380" as="targetPoint" />
          </mxGeometry>
        </mxCell>
        <mxCell id="tSrCRFHeZKI9ePzAQU04-4" value="1" style="resizable=0;html=1;whiteSpace=wrap;align=left;verticalAlign=bottom;" connectable="0" vertex="1" parent="tSrCRFHeZKI9ePzAQU04-3">
          <mxGeometry x="-1" relative="1" as="geometry">
            <mxPoint x="10" as="offset" />
          </mxGeometry>
        </mxCell>
        <mxCell id="tSrCRFHeZKI9ePzAQU04-5" value="0...n" style="resizable=0;html=1;whiteSpace=wrap;align=right;verticalAlign=bottom;" connectable="0" vertex="1" parent="tSrCRFHeZKI9ePzAQU04-3">
          <mxGeometry x="1" relative="1" as="geometry">
            <mxPoint x="-200" y="480" as="offset" />
          </mxGeometry>
        </mxCell>
        <mxCell id="tSrCRFHeZKI9ePzAQU04-6" value="Relationship" style="shape=rhombus;perimeter=rhombusPerimeter;whiteSpace=wrap;html=1;align=center;" vertex="1" parent="1">
          <mxGeometry x="500" y="350" width="120" height="60" as="geometry" />
        </mxCell>
        <mxCell id="tSrCRFHeZKI9ePzAQU04-7" value="apolice" style="swimlane;childLayout=stackLayout;horizontal=1;startSize=50;horizontalStack=0;rounded=1;fontSize=14;fontStyle=0;strokeWidth=2;resizeParent=0;resizeLast=1;shadow=0;dashed=0;align=center;arcSize=4;whiteSpace=wrap;html=1;" vertex="1" parent="1">
          <mxGeometry x="840" y="320" width="160" height="120" as="geometry" />
        </mxCell>
        <mxCell id="tSrCRFHeZKI9ePzAQU04-8" value="" style="endArrow=none;html=1;rounded=0;" edge="1" parent="1">
          <mxGeometry relative="1" as="geometry">
            <mxPoint x="620" y="379.5" as="sourcePoint" />
            <mxPoint x="840" y="380" as="targetPoint" />
          </mxGeometry>
        </mxCell>
        <mxCell id="tSrCRFHeZKI9ePzAQU04-10" value="N" style="resizable=0;html=1;whiteSpace=wrap;align=right;verticalAlign=bottom;" connectable="0" vertex="1" parent="tSrCRFHeZKI9ePzAQU04-8">
          <mxGeometry x="1" relative="1" as="geometry">
            <mxPoint x="-10" as="offset" />
          </mxGeometry>
        </mxCell>
        <mxCell id="tSrCRFHeZKI9ePzAQU04-11" value="Relationship" style="shape=rhombus;perimeter=rhombusPerimeter;whiteSpace=wrap;html=1;align=center;" vertex="1" parent="1">
          <mxGeometry x="860" y="640" width="120" height="60" as="geometry" />
        </mxCell>
        <mxCell id="tSrCRFHeZKI9ePzAQU04-12" value="" style="endArrow=none;html=1;rounded=0;entryX=0.5;entryY=1;entryDx=0;entryDy=0;exitX=0.5;exitY=0;exitDx=0;exitDy=0;" edge="1" parent="1" source="tSrCRFHeZKI9ePzAQU04-11" target="tSrCRFHeZKI9ePzAQU04-7">
          <mxGeometry relative="1" as="geometry">
            <mxPoint x="920" y="620" as="sourcePoint" />
            <mxPoint x="920" y="520.5" as="targetPoint" />
          </mxGeometry>
        </mxCell>
        <mxCell id="tSrCRFHeZKI9ePzAQU04-13" value="1" style="resizable=0;html=1;whiteSpace=wrap;align=left;verticalAlign=bottom;" connectable="0" vertex="1" parent="tSrCRFHeZKI9ePzAQU04-12">
          <mxGeometry x="-1" relative="1" as="geometry">
            <mxPoint x="50" y="191" as="offset" />
          </mxGeometry>
        </mxCell>
        <mxCell id="tSrCRFHeZKI9ePzAQU04-14" value="N" style="resizable=0;html=1;whiteSpace=wrap;align=right;verticalAlign=bottom;" connectable="0" vertex="1" parent="tSrCRFHeZKI9ePzAQU04-12">
          <mxGeometry x="1" relative="1" as="geometry">
            <mxPoint x="-10" y="30" as="offset" />
          </mxGeometry>
        </mxCell>
        <mxCell id="tSrCRFHeZKI9ePzAQU04-15" value="carro" style="swimlane;childLayout=stackLayout;horizontal=1;startSize=50;horizontalStack=0;rounded=1;fontSize=14;fontStyle=0;strokeWidth=2;resizeParent=0;resizeLast=1;shadow=0;dashed=0;align=center;arcSize=4;whiteSpace=wrap;html=1;" vertex="1" parent="1">
          <mxGeometry x="840" y="810" width="160" height="120" as="geometry" />
        </mxCell>
        <mxCell id="tSrCRFHeZKI9ePzAQU04-16" value="" style="endArrow=none;html=1;rounded=0;entryX=0.5;entryY=1;entryDx=0;entryDy=0;" edge="1" parent="1">
          <mxGeometry relative="1" as="geometry">
            <mxPoint x="919.5" y="810" as="sourcePoint" />
            <mxPoint x="919.5" y="700" as="targetPoint" />
          </mxGeometry>
        </mxCell>
        <mxCell id="tSrCRFHeZKI9ePzAQU04-18" value="1" style="resizable=0;html=1;whiteSpace=wrap;align=right;verticalAlign=bottom;" connectable="0" vertex="1" parent="tSrCRFHeZKI9ePzAQU04-16">
          <mxGeometry x="1" relative="1" as="geometry">
            <mxPoint x="-10" y="110" as="offset" />
          </mxGeometry>
        </mxCell>
        <mxCell id="tSrCRFHeZKI9ePzAQU04-19" value="Relationship" style="shape=rhombus;perimeter=rhombusPerimeter;whiteSpace=wrap;html=1;align=center;" vertex="1" parent="1">
          <mxGeometry x="450" y="830" width="120" height="60" as="geometry" />
        </mxCell>
        <mxCell id="tSrCRFHeZKI9ePzAQU04-23" value="" style="endArrow=none;html=1;rounded=0;entryX=1;entryY=0.5;entryDx=0;entryDy=0;exitX=-0.019;exitY=0.442;exitDx=0;exitDy=0;exitPerimeter=0;" edge="1" parent="1" source="tSrCRFHeZKI9ePzAQU04-15" target="tSrCRFHeZKI9ePzAQU04-19">
          <mxGeometry relative="1" as="geometry">
            <mxPoint x="939.5" y="830" as="sourcePoint" />
            <mxPoint x="939.5" y="720" as="targetPoint" />
          </mxGeometry>
        </mxCell>
        <mxCell id="tSrCRFHeZKI9ePzAQU04-25" value="1" style="resizable=0;html=1;whiteSpace=wrap;align=right;verticalAlign=bottom;" connectable="0" vertex="1" parent="tSrCRFHeZKI9ePzAQU04-23">
          <mxGeometry x="1" relative="1" as="geometry">
            <mxPoint x="260" as="offset" />
          </mxGeometry>
        </mxCell>
        <mxCell id="tSrCRFHeZKI9ePzAQU04-26" value="acidente" style="swimlane;childLayout=stackLayout;horizontal=1;startSize=50;horizontalStack=0;rounded=1;fontSize=14;fontStyle=0;strokeWidth=2;resizeParent=0;resizeLast=1;shadow=0;dashed=0;align=center;arcSize=4;whiteSpace=wrap;html=1;" vertex="1" parent="1">
          <mxGeometry x="110" y="800" width="160" height="120" as="geometry" />
        </mxCell>
        <mxCell id="tSrCRFHeZKI9ePzAQU04-27" value="" style="endArrow=none;html=1;rounded=0;exitX=-0.019;exitY=0.442;exitDx=0;exitDy=0;exitPerimeter=0;" edge="1" parent="1">
          <mxGeometry relative="1" as="geometry">
            <mxPoint x="450" y="861.5" as="sourcePoint" />
            <mxPoint x="270" y="862" as="targetPoint" />
          </mxGeometry>
        </mxCell>
      </root>
    </mxGraphModel>
  </diagram>
</mxfile>
